<?xml version="1.0" encoding="UTF-8" standalone="no"?>
<svg width="32px" height="40px" viewBox="0 0 32 40" version="1.1" xmlns="http://www.w3.org/2000/svg" xmlns:xlink="http://www.w3.org/1999/xlink" xmlns:sketch="http://www.bohemiancoding.com/sketch/ns">
    <!-- Generator: Sketch 3.3.3 (12081) - http://www.bohemiancoding.com/sketch -->
    <title>lock24</title>
    <desc>Created with Sketch.</desc>
    <defs></defs>
    <g id="Page-1" stroke="none" stroke-width="1" fill="none" fill-rule="evenodd" sketch:type="MSPage">
        <g id="Oval-31-+-Oval-31-Copy-+-lock24" sketch:type="MSLayerGroup" transform="translate(-23.000000, -19.000000)" fill="#FFFFFF">
            <g id="lock24" transform="translate(23.000000, 19.000000)" sketch:type="MSShapeGroup">
                <path d="M31.0490196,18.9065444 C30.5337155,18.3912403 29.9083037,18.1337576 29.1717678,18.1337576 L28.2892121,18.1337576 L28.2892121,12.8336806 C28.2892121,9.44778374 27.0746394,6.54060135 24.6458327,4.11145583 C22.2166871,1.68231031 19.3095047,0.46773755 15.9232691,0.46773755 C12.5370335,0.46773755 9.6295123,1.68231031 7.20070557,4.11145583 C4.77156005,6.54060135 3.55732608,9.44778374 3.55732608,12.8336806 L3.55732608,18.1337576 L2.67409283,18.1337576 C1.93823452,18.1337576 1.31248393,18.3912403 0.797179834,18.9065444 C0.281875743,19.4215097 0.0243930931,20.0472603 0.0243930931,20.7837962 L0.0243930931,36.683011 C0.0243930931,37.4188693 0.281875743,38.0446199 0.797179834,38.559924 C1.31248393,39.0748893 1.93823452,39.3327107 2.67409283,39.3327107 L29.1724454,39.3327107 C29.9089813,39.3327107 30.5343931,39.0752281 31.0496972,38.559924 C31.5646625,38.0446199 31.8224839,37.4188693 31.8224839,36.683011 L31.8224839,20.7834574 C31.8228227,20.0475991 31.5646625,19.4218485 31.0490196,18.9065444 L31.0490196,18.9065444 Z M22.9894739,18.1337576 L8.85706435,18.1337576 L8.85706435,12.8336806 C8.85706435,10.8832495 9.54718561,9.21774332 10.9274281,7.8378396 C12.3076706,6.45759708 13.972838,5.76781461 15.9236079,5.76781461 C17.8743778,5.76781461 19.5395452,6.45759708 20.9194489,7.8378396 C22.2993526,9.21774332 22.9894739,10.8832495 22.9894739,12.8336806 L22.9894739,18.1337576 L22.9894739,18.1337576 Z" id="Shape"></path>
            </g>
        </g>
    </g>
</svg>