<?xml version="1.0" encoding="UTF-8" standalone="no"?>
<svg width="52px" height="89px" viewBox="0 0 52 89" version="1.1" xmlns="http://www.w3.org/2000/svg" xmlns:xlink="http://www.w3.org/1999/xlink" xmlns:sketch="http://www.bohemiancoding.com/sketch/ns">
    <!-- Generator: Sketch 3.3.3 (12081) - http://www.bohemiancoding.com/sketch -->
    <title>Slice 1</title>
    <desc>Created with Sketch.</desc>
    <defs></defs>
    <g id="Page-1" stroke="none" stroke-width="1" fill="none" fill-rule="evenodd" sketch:type="MSPage">
        <g id="male93" sketch:type="MSLayerGroup" fill="#FFFFFF">
            <g id="Group" sketch:type="MSShapeGroup">
                <path d="M25.9543269,22.619125 C29.0756437,22.619125 31.7353443,21.5263958 33.9346645,19.3397083 C36.1327488,17.1530208 37.2320999,14.5072396 37.2320999,11.4029792 C37.2320999,8.29810417 36.1327488,5.65355208 33.9346645,3.46625 C31.7353443,1.28017708 29.0756437,0.186833333 25.9543269,0.186833333 C22.8323922,0.186833333 20.1720737,1.2795625 17.9739894,3.46625 C15.775905,5.6529375 14.6765539,8.29810417 14.6765539,11.4029792 C14.6765539,14.5078542 15.7752871,17.1536354 17.9739894,19.3397083 C20.1726916,21.5257812 22.8330101,22.619125 25.9543269,22.619125 L25.9543269,22.619125 Z" id="Shape"></path>
                <path d="M48.912783,27.0250729 C47.0323302,25.156125 44.7508213,24.2213437 42.0657843,24.2213437 L9.84348747,24.2213437 C7.15783259,24.2213437 4.8757057,25.1555104 2.99587088,27.0250729 C1.11665402,28.8946354 0.176736607,31.1649062 0.176736607,33.8352708 L0.176736607,54.6659583 C0.176736607,56.0014479 0.646386332,57.1359687 1.58630374,58.0701354 C2.52622115,59.0049167 3.66759358,59.472 5.00980306,59.472 C6.35263049,59.472 7.49400292,59.0049167 8.43392033,58.0701354 C9.37321978,57.1359687 9.84348747,56.0014479 9.84348747,54.6659583 L9.84348747,37.0403229 L13.0655318,37.0403229 L13.0655318,82.7057083 C13.0655318,84.2409375 13.619842,85.5604479 14.7272266,86.6617812 C15.8346113,87.7631146 17.1601358,88.3137812 18.7044183,88.3137812 C20.2487007,88.3137812 21.5748432,87.7631146 22.6822279,86.6617812 C23.7896125,85.5604479 24.3433048,84.2415521 24.3433048,82.7057083 L24.3433048,59.472 L27.5653491,59.472 L27.5653491,82.7063229 C27.5653491,84.2415521 28.1190414,85.5610625 29.226426,86.6623958 C30.3338106,87.7637292 31.6599531,88.3143958 33.2042356,88.3143958 C34.748518,88.3143958 36.0746605,87.7637292 37.1820452,86.6623958 C38.2900477,85.5604479 38.8431221,84.2421667 38.8431221,82.7063229 L38.8431221,37.0403229 L42.0657843,37.0403229 L42.0657843,54.6653437 C42.0657843,56.0008333 42.5354341,57.1353542 43.4753515,58.0695208 C44.4146509,59.0043021 45.5560234,59.4713854 46.8982328,59.4713854 C48.2404423,59.4713854 49.3830507,59.0043021 50.3223501,58.0695208 C51.2616496,57.1353542 51.7319172,56.0008333 51.7319172,54.6653437 L51.7319172,33.8352708 C51.7325352,31.1642917 50.7919998,28.8946354 48.912783,27.0250729 L48.912783,27.0250729 Z" id="Shape"></path>
            </g>
        </g>
    </g>
</svg>