<?xml version="1.0" encoding="UTF-8" standalone="no"?>
<svg width="84px" height="78px" viewBox="0 0 84 78" version="1.1" xmlns="http://www.w3.org/2000/svg" xmlns:xlink="http://www.w3.org/1999/xlink" xmlns:sketch="http://www.bohemiancoding.com/sketch/ns">
    <!-- Generator: Sketch 3.3.3 (12081) - http://www.bohemiancoding.com/sketch -->
    <title>Slice 1</title>
    <desc>Created with Sketch.</desc>
    <defs></defs>
    <g id="Page-1" stroke="none" stroke-width="1" fill="none" fill-rule="evenodd" sketch:type="MSPage">
        <path d="M50.5869038,54.5205069 C50.5869038,54.2301528 50.4858141,53.9397986 50.2836346,53.6494444 C48.6651346,51.7025208 47.3648013,50.0325833 46.3821026,48.6390972 C46.988641,47.4488056 47.4509936,46.3451389 47.7686282,45.3291667 L54.4879038,44.2837847 C54.748609,44.254375 54.9795192,44.1019792 55.1816987,43.8265972 C55.3838782,43.5496111 55.4844359,43.2672778 55.4844359,42.9769236 L55.4844359,34.9165208 C55.4844359,34.5972917 55.3838782,34.3138889 55.1816987,34.0673819 C54.9795192,33.820875 54.7337115,33.6679444 54.4448077,33.6107292 L47.8558846,32.6086597 C47.5371859,31.6210278 47.0461026,30.4296667 46.3815705,29.0361806 C46.8146603,28.3966528 47.465359,27.5250556 48.3326026,26.4219236 C49.1993141,25.3182569 49.8069167,24.5343542 50.1532821,24.0696806 C50.3554615,23.7793264 50.4565513,23.502875 50.4565513,23.2419306 C50.4565513,22.4574931 48.3756987,20.134125 44.2150577,16.2712917 C43.9261538,16.0392222 43.6228846,15.9231875 43.3041859,15.9231875 C42.9578205,15.9231875 42.6689167,16.0237153 42.4369423,16.2279792 L37.3218013,20.10525 C36.1374551,19.4956667 35.0536667,19.0454306 34.0709679,18.7545417 L33.0739038,12.0892292 C33.0457051,11.798875 32.9009872,11.5443472 32.6408141,11.3267153 C32.380641,11.1090833 32.0917372,11 31.7735705,11 L23.7113974,11 C23.0468654,11 22.6132436,11.3486389 22.4110641,12.0453819 C22.0641667,13.3816528 21.7321667,15.6183958 21.414,18.7545417 C20.1716603,19.1609306 19.059141,19.6256042 18.0764423,20.1485625 L13.0916538,16.2279792 C12.80275,16.02425 12.4994808,15.9231875 12.1813141,15.9231875 C11.6317051,15.9231875 10.4904551,16.7798125 8.7565,18.4935972 C7.02254487,20.2068472 5.83713462,21.4992708 5.20186538,22.3708681 C4.99915385,22.6034722 4.89859615,22.8938264 4.89859615,23.2424653 C4.89859615,23.5034097 4.99915385,23.7937639 5.20186538,24.1135278 C6.81983333,26.0599167 8.12016667,27.7298542 9.10286538,29.1233403 C8.49632692,30.3147014 8.03397436,31.4178333 7.71633974,32.4343403 L0.997064103,33.4791875 C0.736891026,33.5080625 0.505980769,33.6604583 0.303269231,33.9358403 C0.101089744,34.2122917 0,34.4951597 0,34.7855139 L0,42.8448472 C0,43.1646111 0.101089744,43.4480139 0.303269231,43.6945208 C0.505980769,43.9415625 0.75125641,44.0795208 1.04069231,44.1083958 L7.62961538,45.1537778 C7.97651282,46.2574444 8.48249359,47.4482708 9.14702564,48.7262569 C8.68467308,49.3657847 8.00577564,50.2518194 7.10980128,51.3838264 C6.21329487,52.5169028 5.62112179,53.2869028 5.33221795,53.6927569 C5.13003846,53.9831111 5.02894872,54.2600972 5.02894872,54.5205069 C5.02894872,55.3054792 7.10980128,57.6283125 11.2709744,61.4911458 C11.5598782,61.7232153 11.8631474,61.8387153 12.1813141,61.8387153 C12.5569423,61.8387153 12.8458462,61.7381875 13.0480256,61.5344583 L18.1631667,57.6571875 C19.3475128,58.2673056 20.4313013,58.7170069 21.414,59.0073611 L22.4110641,65.6732083 C22.4397949,65.9635625 22.5845128,66.2180903 22.8441538,66.4357222 C23.1043269,66.6533542 23.3932308,66.7619028 23.7113974,66.7619028 L31.7735705,66.7619028 C32.4386346,66.7619028 32.8717244,66.4137986 33.0739038,65.7165208 C33.4208013,64.3508403 33.7528013,62.1001944 34.0709679,58.9635139 C35.2265833,58.6159444 36.3391026,58.1646389 37.4085256,57.613875 L42.3938462,61.5344583 C42.68275,61.7381875 42.9860192,61.8387153 43.3041859,61.8387153 C43.8532628,61.8387153 44.9881282,60.9751389 46.7071859,59.2463819 C48.4262436,57.5192292 49.6185705,56.2187847 50.2836346,55.3471875 C50.4858141,55.1450625 50.5869038,54.8691458 50.5869038,54.5205069 L50.5869038,54.5205069 Z M35.5883782,46.7665 C33.4213333,48.9444236 30.8057692,50.0336528 27.74275,50.0336528 C24.6791987,50.0336528 22.0636346,48.9444236 19.8965897,46.7665 C17.7295449,44.5885764 16.6457564,41.9598819 16.6457564,38.8809514 C16.6457564,35.8025556 17.7295449,33.1738611 19.8965897,30.9959375 C22.0636346,28.8174792 24.6791987,27.7287847 27.74275,27.7287847 C30.8057692,27.7287847 33.4213333,28.8174792 35.5883782,30.9959375 C37.7559551,33.1738611 38.8392115,35.8025556 38.8392115,38.8809514 C38.8392115,41.9598819 37.7559551,44.5885764 35.5883782,46.7665 L35.5883782,46.7665 Z" id="Shape" fill="#FFFFFF" sketch:type="MSShapeGroup"></path>
        <path d="M76.8318782,56.6318125 C76.4567821,55.789625 76.0231603,55.0345972 75.5320769,54.3661944 C77.005859,51.0840694 77.7422179,49.0799306 77.7422179,48.3543125 C77.7422179,48.2388125 77.6852885,48.1366806 77.5693013,48.0495208 C74.100859,46.0165069 72.3094423,45 72.1939872,45 L71.9338141,45.0876944 C70.7494679,46.2785208 69.4193397,47.9051458 67.9460897,49.9670347 C67.3682821,49.9092847 66.9351923,49.8793403 66.6462885,49.8793403 C66.3563205,49.8793403 65.9237628,49.9092847 65.3454231,49.9670347 C64.9421282,49.3563819 64.1898077,48.3762361 63.0921859,47.0260625 C61.9945641,45.6758889 61.3295,45 61.0980577,45 C61.0405962,45 60.6069744,45.2326042 59.7977244,45.6978125 C58.9884744,46.1624861 58.1361282,46.6560347 57.2401538,47.1795278 C56.3431154,47.7030208 55.8387308,47.9928403 55.7227436,48.051125 C55.6062244,48.13775 55.5492949,48.2398819 55.5492949,48.3553819 C55.5492949,49.0815347 56.2861859,51.0846042 57.7594359,54.3672639 C57.2688846,55.0356667 56.8352628,55.7906944 56.4596346,56.6323472 C52.1532115,57.0676111 50,57.5178472 50,57.9825208 L50,64.0815625 C50,64.5462361 52.1532115,64.9964722 56.4596346,65.4317361 C56.8054679,66.2156389 57.2396218,66.9712014 57.7594359,67.6962847 C56.2861859,70.9784097 55.5492949,72.9825486 55.5492949,73.7087014 C55.5492949,73.8242014 55.6062244,73.9263333 55.7227436,74.0134931 C59.2475833,76.0753819 61.0400641,77.1063264 61.0980577,77.1063264 C61.3295,77.1063264 61.9945641,76.4240208 63.0921859,75.058875 C64.1898077,73.6931944 64.9415962,72.7066319 65.3454231,72.0965139 C65.9232308,72.1537292 66.3563205,72.1831389 66.6462885,72.1831389 C66.9351923,72.1831389 67.3682821,72.1537292 67.9460897,72.0965139 C68.3499167,72.7066319 69.1017051,73.6931944 70.199859,75.058875 C71.2974808,76.4240208 71.9620128,77.1063264 72.1939872,77.1063264 C72.2514487,77.1063264 74.0439295,76.0748472 77.5693013,74.0134931 C77.6852885,73.9263333 77.7422179,73.8247361 77.7422179,73.7087014 C77.7422179,72.9825486 77.0053269,70.9784097 75.5320769,67.6962847 C76.051891,66.9712014 76.4855128,66.2156389 76.8318782,65.4317361 C81.1383013,64.9964722 83.2915128,64.5462361 83.2915128,64.0815625 L83.2915128,57.9825208 C83.2915128,57.5178472 81.1383013,57.0676111 76.8318782,56.6318125 L76.8318782,56.6318125 Z M70.5680385,64.9745486 C69.4853141,66.0637778 68.177,66.6091944 66.6452244,66.6091944 C65.1134487,66.6091944 63.8056667,66.0637778 62.7224103,64.9745486 C61.6386218,63.8853194 61.0964615,62.5715069 61.0964615,61.0320417 C61.0964615,59.5219861 61.6460705,58.2140556 62.7442244,57.1109236 C63.8423782,56.0077917 65.1427115,55.4554236 66.6452244,55.4554236 C68.1477372,55.4554236 69.4491346,56.0072569 70.5472885,57.1109236 C71.6449103,58.2140556 72.1945192,59.5219861 72.1945192,61.0320417 C72.1939872,62.5715069 71.652359,63.8853194 70.5680385,64.9745486 L70.5680385,64.9745486 Z" id="Shape" fill="#FFFFFF" sketch:type="MSShapeGroup"></path>
        <path d="M76.8318782,11.6318125 C76.4567821,10.789625 76.0231603,10.0345972 75.5320769,9.36619444 C77.005859,6.08460417 77.7422179,4.08046528 77.7422179,3.3543125 C77.7422179,3.2388125 77.6852885,3.13668056 77.5693013,3.04952083 C74.100859,1.01650694 72.3094423,7.34289173e-15 72.1939872,7.34289173e-15 L71.9338141,0.0871597222 C70.7494679,1.27852083 69.4193397,2.90461111 67.9460897,4.9665 C67.3682821,4.90875 66.9351923,4.87934028 66.6462885,4.87934028 C66.3563205,4.87934028 65.9237628,4.90875 65.3454231,4.9665 C64.9421282,4.35638194 64.1898077,3.37623611 63.0921859,2.0260625 C61.9945641,0.675354167 61.3295,7.10542736e-15 61.0980577,7.10542736e-15 C61.0405962,7.10542736e-15 60.6069744,0.232069444 59.7977244,0.697277778 C58.9884744,1.16248611 58.1361282,1.65603472 57.2401538,2.17899306 C56.3431154,2.70195139 55.8387308,2.99230556 55.7227436,3.05005556 C55.6062244,3.13721528 55.5492949,3.2388125 55.5492949,3.35484722 C55.5492949,4.081 56.2861859,6.08513889 57.7594359,9.36672917 C57.2688846,10.0351319 56.8352628,10.7901597 56.4596346,11.6323472 C52.1532115,12.0676111 50,12.5178472 50,12.9825208 L50,19.0815625 C50,19.5462361 52.1532115,19.9964722 56.4596346,20.4317361 C56.8054679,21.2156389 57.2396218,21.9712014 57.7594359,22.6973542 C56.2861859,25.9794792 55.5492949,27.9830833 55.5492949,28.7092361 C55.5492949,28.8247361 55.6062244,28.9268681 55.7227436,29.0140278 C59.2475833,31.0759167 61.0400641,32.1068611 61.0980577,32.1068611 C61.3295,32.1068611 61.9945641,31.4245556 63.0921859,30.0594097 C64.1898077,28.6942639 64.9415962,27.7071667 65.3454231,27.0970486 C65.9232308,27.1547986 66.3563205,27.1842083 66.6462885,27.1842083 C66.9351923,27.1842083 67.3682821,27.1547986 67.9460897,27.0970486 C68.3499167,27.7071667 69.1017051,28.6942639 70.199859,30.0594097 C71.2974808,31.4245556 71.9620128,32.1068611 72.1939872,32.1068611 C72.2514487,32.1068611 74.0439295,31.0759167 77.5693013,29.0140278 C77.6852885,28.9268681 77.7422179,28.8252708 77.7422179,28.7092361 C77.7422179,27.9830833 77.0053269,25.9794792 75.5320769,22.6973542 C76.051891,21.9712014 76.4855128,21.2161736 76.8318782,20.4317361 C81.1383013,19.9964722 83.2915128,19.5462361 83.2915128,19.0815625 L83.2915128,12.9825208 C83.2915128,12.5178472 81.1383013,12.0676111 76.8318782,11.6318125 L76.8318782,11.6318125 Z M70.5680385,19.9745486 C69.4853141,21.0637778 68.177,21.6086597 66.6452244,21.6086597 C65.1134487,21.6086597 63.8056667,21.0637778 62.7224103,19.9745486 C61.6386218,18.8858542 61.0964615,17.5715069 61.0964615,16.0320417 C61.0964615,14.5219861 61.6460705,13.2145903 62.7442244,12.1109236 C63.8423782,11.0072569 65.1427115,10.4554236 66.6452244,10.4554236 C68.1477372,10.4554236 69.4491346,11.0077917 70.5472885,12.1109236 C71.6449103,13.2145903 72.1945192,14.5219861 72.1945192,16.0320417 C72.1939872,17.5715069 71.652359,18.8858542 70.5680385,19.9745486 L70.5680385,19.9745486 Z" id="Shape" fill="#FFFFFF" sketch:type="MSShapeGroup"></path>
    </g>
</svg>