<?xml version="1.0" encoding="UTF-8" standalone="no"?>
<svg width="74px" height="64px" viewBox="0 0 74 64" version="1.1" xmlns="http://www.w3.org/2000/svg" xmlns:xlink="http://www.w3.org/1999/xlink" xmlns:sketch="http://www.bohemiancoding.com/sketch/ns">
    <!-- Generator: Sketch 3.3.3 (12081) - http://www.bohemiancoding.com/sketch -->
    <title>Slice 1</title>
    <desc>Created with Sketch.</desc>
    <defs></defs>
    <g id="Page-1" stroke="none" stroke-width="1" fill="none" fill-rule="evenodd" sketch:type="MSPage">
        <g id="desktop14" sketch:type="MSLayerGroup" fill="#FFFFFF">
            <path d="M72.1881873,1.80804296 C70.9804701,0.602838344 69.529601,0 67.8332148,0 L6.16678491,0 C4.47087175,0 3.01952962,0.602838344 1.81133932,1.80804296 C0.603622088,3.01324757 0,4.46157024 0,6.15395509 L0,48 C0,49.6928569 0.603622088,51.1411796 1.81133932,52.3463842 C3.01952962,53.5515888 4.47087175,54.1539551 6.16678491,54.1539551 L27.1336644,54.1539551 C27.1336644,55.1278435 26.9278841,56.1286401 26.5167967,57.1535125 C26.1057092,58.1793291 25.6946217,59.0767415 25.2835343,59.8457499 C24.8729199,60.6152303 24.6671396,61.1788865 24.6671396,61.5376626 C24.6671396,62.204231 24.9112376,62.7820494 25.3994335,63.2682855 C25.8876294,63.7559378 26.4657064,64 27.1336644,64 L46.8668084,64 C47.5347664,64 48.1133164,63.7559378 48.6010393,63.2682855 C49.0897082,62.7820494 49.3338062,62.204231 49.3338062,61.5376626 C49.3338062,61.2048506 49.1275529,60.6468592 48.7164654,59.8651049 C48.305378,59.0833505 47.8942905,58.172248 47.4836761,57.1346296 C47.0725887,56.096067 46.8668084,55.1028236 46.8668084,54.1539551 L67.8336879,54.1539551 C69.529128,54.1539551 70.9804701,53.5515888 72.1881873,52.3463842 C73.3959046,51.1411796 73.9999997,49.6928569 73.9999997,48 L73.9999997,6.15395509 C74.0004728,4.46157024 73.3963776,3.01324757 72.1881873,1.80804296 L72.1881873,1.80804296 Z M69.0664772,38.1539551 C69.0664772,38.4872393 68.9444282,38.7756764 68.7003302,39.0192665 C68.4562323,39.2623846 68.1671938,39.3841796 67.8332148,39.3841796 L6.16678491,39.3841796 C5.83280592,39.3841796 5.54376744,39.2623846 5.29966948,39.0192665 C5.05557152,38.7747322 4.93352254,38.4872393 4.93352254,38.1539551 L4.93352254,6.15395509 C4.93352254,5.82067094 5.05509846,5.53223379 5.29966948,5.28864367 C5.54376744,5.04552562 5.83280592,4.92325849 6.16678491,4.92325849 L67.8341609,4.92325849 C68.1676669,4.92325849 68.4571784,5.04505355 68.7008033,5.28864367 C68.9449013,5.53223379 69.0664772,5.82067094 69.0664772,6.15395509 L69.0664772,38.1539551 L69.0664772,38.1539551 Z" id="Shape" sketch:type="MSShapeGroup"></path>
        </g>
    </g>
</svg>